# xmcd
#
# Track frame offsets: 
#        150
#        13847
#        35490
#        49167
#        58770
#        71610
#        83687
#        94547
#        104987
#        115730
#        128897
#        142312
#        159537
#        171097
#        181475
#
# Disc length: 2567 seconds
#
# Revision: 7
# Processed by: cddbd v1.5.2PL0 Copyright (c) Steve Scherf et al.
# Submitted via: ExactAudioCopy v1.3
#
DISCID=d80a050f
DTITLE=R&B cd1 - Rhythm and Blues CD1
DYEAR=1989
DGENRE=Blues
TTITLE0=Blues Brothers_Soul man
TTITLE1=Ray Charles_What'd I say
TTITLE2=Eddie Floyd_Knock on wood
TTITLE3=Aretha Franklin_Think
TTITLE4=Booker T. and the MG's_Green Onions
TTITLE5=Otis Redding_The dock of the bay
TTITLE6=Wilson Pickett_Land of 1000 dances
TTITLE7=Arthur Conley_Sweet soul music
TTITLE8=Aretha Franklin_Respect
TTITLE9=King Curtis_Memphis soul stew
TTITLE10=Otis Redding-Carla Thomas_Tramps
TTITLE11=Brook Benton_Raining night in Georgia
TTITLE12=Ray Charles_Hallelujah, I love her so
TTITLE13=Bar Kays_Soul finger
TTITLE14=Wilson Pickett_In the midnight hour
EXTD=YEAR: 1989 ID3G: 0
EXTT0=
EXTT1=
EXTT2=
EXTT3=
EXTT4=
EXTT5=
EXTT6=
EXTT7=
EXTT8=
EXTT9=
EXTT10=
EXTT11=
EXTT12=
EXTT13=
EXTT14=
PLAYORDER=
